<svg width="24" height="25" viewBox="0 0 24 25" fill="none" xmlns="http://www.w3.org/2000/svg">
<g clip-path="url(#clip0_29_25)">
<path d="M0.75 12.5C0.75 15.4837 1.93526 18.3452 4.04505 20.455C6.15483 22.5647 9.01631 23.75 12 23.75C14.9837 23.75 17.8452 22.5647 19.955 20.455C22.0647 18.3452 23.25 15.4837 23.25 12.5C23.25 9.51631 22.0647 6.65483 19.955 4.54505C17.8452 2.43526 14.9837 1.25 12 1.25C9.01631 1.25 6.15483 2.43526 4.04505 4.54505C1.93526 6.65483 0.75 9.51631 0.75 12.5Z" stroke="#E53170" stroke-width="1.5" stroke-linecap="round" stroke-linejoin="round"/>
<path d="M17.25 10.25H14.25V7.25C14.25 6.85218 14.092 6.47064 13.8107 6.18934C13.5294 5.90804 13.1478 5.75 12.75 5.75H11.25C10.8522 5.75 10.4706 5.90804 10.1893 6.18934C9.90804 6.47064 9.75 6.85218 9.75 7.25V10.25H6.75C6.35218 10.25 5.97064 10.408 5.68934 10.6893C5.40804 10.9706 5.25 11.3522 5.25 11.75V13.25C5.25 13.6478 5.40804 14.0294 5.68934 14.3107C5.97064 14.592 6.35218 14.75 6.75 14.75H9.75V17.75C9.75 18.1478 9.90804 18.5294 10.1893 18.8107C10.4706 19.092 10.8522 19.25 11.25 19.25H12.75C13.1478 19.25 13.5294 19.092 13.8107 18.8107C14.092 18.5294 14.25 18.1478 14.25 17.75V14.75H17.25C17.6478 14.75 18.0294 14.592 18.3107 14.3107C18.592 14.0294 18.75 13.6478 18.75 13.25V11.75C18.75 11.3522 18.592 10.9706 18.3107 10.6893C18.0294 10.408 17.6478 10.25 17.25 10.25Z" stroke="#E53170" stroke-width="1.5" stroke-linecap="round" stroke-linejoin="round"/>
</g>
<defs>
<clipPath id="clip0_29_25">
<rect width="24" height="24" fill="white" transform="translate(0 0.5)"/>
</clipPath>
</defs>
</svg>
