<svg width="18" height="18" viewBox="0 0 18 18" fill="none" xmlns="http://www.w3.org/2000/svg">
<g clip-path="url(#clip0_29_31)">
<path d="M0.560974 9C0.560974 11.2378 1.44992 13.3839 3.03226 14.9662C4.6146 16.5485 6.76071 17.4375 8.99848 17.4375C11.2363 17.4375 13.3824 16.5485 14.9647 14.9662C16.547 13.3839 17.436 11.2378 17.436 9C17.436 6.76223 16.547 4.61612 14.9647 3.03379C13.3824 1.45145 11.2363 0.5625 8.99848 0.5625C6.76071 0.5625 4.6146 1.45145 3.03226 3.03379C1.44992 4.61612 0.560974 6.76223 0.560974 9Z" stroke="white" stroke-width="1.5" stroke-linecap="round" stroke-linejoin="round"/>
<path d="M3.03223 14.9663L14.964 3.03378" stroke="white" stroke-width="1.5" stroke-linecap="round" stroke-linejoin="round"/>
<path d="M14.964 14.9663L3.03223 3.03378" stroke="white" stroke-width="1.5" stroke-linecap="round" stroke-linejoin="round"/>
</g>
<defs>
<clipPath id="clip0_29_31">
<rect width="18" height="18" fill="white"/>
</clipPath>
</defs>
</svg>
