<svg width="18" height="18" viewBox="0 0 18 18" fill="none" xmlns="http://www.w3.org/2000/svg">
<g clip-path="url(#clip0_29_28)">
<path d="M16.941 3.44326C17.2575 3.12679 17.4352 2.69756 17.4352 2.25001C17.4352 1.80245 17.2575 1.37323 16.941 1.05676C16.6245 0.740291 16.1953 0.5625 15.7477 0.5625C15.3002 0.5625 14.871 0.740291 14.5545 1.05676L6.10498 9.50625L8.49148 11.8927L16.941 3.44326Z" stroke="white" stroke-width="1.5" stroke-linecap="round" stroke-linejoin="round"/>
<path d="M6.105 9.50632L5.06025 12.9376L8.4915 11.8928M13.7108 1.90054L16.0972 4.28704M2.81025 14.0626H2.25C1.80244 14.0626 1.37323 14.2403 1.05676 14.5568C0.74029 14.8732 0.5625 15.3025 0.5625 15.7501C0.5625 16.1976 0.74029 16.6268 1.05676 16.9432C1.37323 17.2597 1.80244 17.4376 2.25 17.4376H14.0625" stroke="white" stroke-width="1.5" stroke-linecap="round" stroke-linejoin="round"/>
</g>
<defs>
<clipPath id="clip0_29_28">
<rect width="18" height="18" fill="white"/>
</clipPath>
</defs>
</svg>
