<svg width="18" height="18" viewBox="0 0 18 18" fill="none" xmlns="http://www.w3.org/2000/svg">
<g clip-path="url(#clip0_33_2)">
<path d="M16.3125 17.4375H1.6875C1.38914 17.4375 1.10298 17.319 0.892005 17.108C0.681026 16.897 0.5625 16.6108 0.5625 16.3125V5.43225C0.562627 4.83557 0.799762 4.26336 1.22175 3.8415L3.84075 1.22175C4.04972 1.01272 4.29784 0.8469 4.57091 0.733784C4.84399 0.620668 5.13668 0.562465 5.43225 0.5625H16.3125C16.6108 0.5625 16.897 0.681026 17.108 0.892005C17.319 1.10298 17.4375 1.38914 17.4375 1.6875V16.3125C17.4375 16.6108 17.319 16.897 17.108 17.108C16.897 17.319 16.6108 17.4375 16.3125 17.4375Z" stroke="white" stroke-width="1.5" stroke-linecap="round" stroke-linejoin="round"/>
<path d="M7.3125 9.5625C7.3125 10.1592 7.54958 10.7315 7.97153 11.1535C8.39348 11.5754 8.9658 11.8125 9.5625 11.8125C10.1592 11.8125 10.7315 11.5754 11.1535 11.1535C11.5754 10.7315 11.8125 10.1592 11.8125 9.5625C11.8125 8.9658 11.5754 8.39348 11.1535 7.97153C10.7315 7.54958 10.1592 7.3125 9.5625 7.3125C8.9658 7.3125 8.39348 7.54958 7.97153 7.97153C7.54958 8.39348 7.3125 8.9658 7.3125 9.5625Z" stroke="white" stroke-width="1.5" stroke-linecap="round" stroke-linejoin="round"/>
<path d="M9.5625 15.1875H14.625" stroke="white" stroke-width="1.5" stroke-linecap="round" stroke-linejoin="round"/>
<path d="M6.1875 0.5625V2.8125C6.1875 3.11086 6.30603 3.39702 6.517 3.60799C6.72798 3.81897 7.01414 3.9375 7.3125 3.9375H12.9375C13.2358 3.9375 13.522 3.81897 13.733 3.60799C13.944 3.39702 14.0625 3.11086 14.0625 2.8125V0.5625" stroke="white" stroke-width="1.5" stroke-linecap="round" stroke-linejoin="round"/>
</g>
<defs>
<clipPath id="clip0_33_2">
<rect width="18" height="18" fill="white"/>
</clipPath>
</defs>
</svg>
