<svg width="18" height="18" viewBox="0 0 18 18" fill="none" xmlns="http://www.w3.org/2000/svg">
<g clip-path="url(#clip0_33_7)">
<path d="M6.1875 17.4375H1.6875C1.38914 17.4375 1.10298 17.319 0.892005 17.108C0.681026 16.897 0.5625 16.6108 0.5625 16.3125V8.4375H1.6875V6.1875H0.5625V1.6875C0.5625 1.38914 0.681026 1.10298 0.892005 0.892005C1.10298 0.681026 1.38914 0.5625 1.6875 0.5625H9.6075C9.7698 0.562505 9.93023 0.597632 10.0777 0.665469C10.2251 0.733306 10.3562 0.832245 10.4618 0.9555L13.7917 4.18425C13.9664 4.38812 14.0625 4.64776 14.0625 4.91625V6.19125" stroke="white" stroke-width="1.5" stroke-linecap="round" stroke-linejoin="round"/>
<path d="M5.0625 2.8125V5.0625" stroke="white" stroke-width="1.5" stroke-linecap="round" stroke-linejoin="round"/>
<path d="M8.4375 2.8125V5.0625" stroke="white" stroke-width="1.5" stroke-linecap="round" stroke-linejoin="round"/>
<path d="M11.25 14.0625H8.4375V16.875" stroke="white" stroke-width="1.5" stroke-linecap="round" stroke-linejoin="round"/>
<path d="M17.0002 14.6122C16.7023 15.4828 16.1254 16.2308 15.359 16.7399C14.5927 17.2492 13.6797 17.4912 12.7617 17.4286C11.8437 17.366 10.9721 17.0021 10.282 16.3934C9.59199 15.7848 9.12204 14.9654 8.94519 14.0625" stroke="white" stroke-width="1.5" stroke-linecap="round" stroke-linejoin="round"/>
<path d="M14.625 11.8125H17.4375V9" stroke="white" stroke-width="1.5" stroke-linecap="round" stroke-linejoin="round"/>
<path d="M8.87476 11.2628C9.17266 10.3922 9.74956 9.64434 10.5159 9.13509C11.2823 8.62591 12.1952 8.38381 13.1132 8.44651C14.0312 8.50914 14.9029 8.87296 15.593 9.48159C16.283 10.0902 16.7529 10.9096 16.9298 11.8126" stroke="white" stroke-width="1.5" stroke-linecap="round" stroke-linejoin="round"/>
</g>
<defs>
<clipPath id="clip0_33_7">
<rect width="18" height="18" fill="white"/>
</clipPath>
</defs>
</svg>
